# Blender v3.1.2 OBJ File: 'PortalTuer.blend'
# www.blender.org
mtllib PortalTuerFixed.mtl
o Cube
v -6.904768 -1.000000 -1.000000
v 6.904768 1.000000 -1.000000
v 6.904768 -1.000000 -1.000000
v 6.904768 1.000000 1.000000
v 6.904768 -1.000000 1.000000
v -6.904768 1.000000 -1.000000
v -6.904768 -1.000000 1.000000
v 6.904768 1.000054 1.791043
v 6.904768 5.822208 1.790182
v 6.904768 1.000016 1.488764
v -6.904768 1.000000 1.000000
v -6.904768 1.000016 1.488764
v 6.904768 5.822154 1.000000
v -6.904768 5.822154 1.000000
v 6.904768 5.822154 -1.000000
v -6.904768 5.822154 -1.000000
v 6.904768 8.835142 1.000000
v 6.904768 10.261521 1.000000
v -6.904768 10.261521 1.000000
v 6.904768 10.261521 -1.000000
v -6.904768 10.261521 -1.000000
v -6.904768 10.261521 -11.099382
v 6.904768 10.261521 -11.099382
v 6.904768 8.835142 -12.762895
v -6.904768 10.261521 -12.762895
v 6.904768 10.261521 -12.762895
v -6.904768 3.063844 -11.099382
v 6.904768 3.063844 -11.099382
v -6.904768 3.063844 -12.762895
v 6.904768 3.063844 -12.762895
v -6.904768 0.890768 -11.090694
v 6.904768 0.890768 -11.090694
v -6.904768 0.890768 -12.762895
v -6.904768 -0.938374 -11.099382
v 6.904768 -0.938374 -11.099382
v -6.904768 -0.938374 -12.762895
v 6.904768 -0.938374 -12.762895
v 6.904768 5.822154 1.489484
v -6.904768 5.822154 1.489484
v -6.904768 1.000054 1.791043
v 6.904768 7.354355 1.488624
v -6.904768 7.354355 1.488624
v -6.904768 5.822208 1.790182
v -6.904768 -1.000000 1.685233
v 6.904768 -1.000000 2.112617
v -6.904768 -1.000000 2.112617
v -6.904768 10.513436 -11.099382
v 6.904768 -1.000000 1.685233
v 6.904768 10.513436 -11.099382
v -6.904768 10.513436 -12.762895
v 6.904768 10.513436 -12.762895
v 6.904768 10.513436 -12.955688
v -6.904768 10.513436 -12.933007
v -6.904768 3.063844 -13.179482
v 6.904768 3.063844 -13.179482
v -6.904768 1.559237 -13.179482
v 6.904768 0.890768 -12.762895
v 6.904768 1.559237 -13.179482
v 6.904768 10.595329 1.000000
v -6.904768 10.595329 1.000000
v 6.904768 10.595329 -0.548140
v -6.904768 10.595329 -0.548140
v 6.722972 8.835142 -12.945243
v 6.904768 8.835142 -12.763446
v 6.904768 10.261521 -12.763446
v 6.722972 10.261521 -12.945243
v 6.904768 10.443162 -12.952775
v -6.904768 8.835142 -12.762895
v -6.692200 8.835142 -12.945243
v -6.692200 10.261521 -12.945243
v -6.904768 10.473840 -12.934931
v 6.904768 6.466607 -1.000000
v 6.904768 8.835142 -3.368535
v -6.904768 8.835142 -3.368535
v -6.904768 6.466607 -1.000000
v -6.904768 8.835142 0.999950
v -6.904768 8.472586 -11.099382
v -6.904768 8.835142 -10.736826
v -6.904768 9.197699 -11.099382
v -6.904768 8.835142 -11.461939
v 6.904768 8.835142 -10.736826
v 6.904768 8.472586 -11.099382
v 6.904768 8.835142 -11.461939
v 6.904768 9.197699 -11.099382
v -6.904768 -0.938374 -10.338095
v 6.904768 -0.938374 -10.338095
v -6.904768 0.146857 -10.338095
v 6.904768 0.146857 -10.338095
vt 0.625000 0.500000
vt 0.875000 0.500000
vt 0.875000 0.750000
vt 0.625000 0.750000
vt 0.625000 0.500000
vt 0.625000 0.500000
vt 0.625000 0.250000
vt 0.625000 0.250000
vt 0.375000 0.000000
vt 0.625000 0.000000
vt 0.625000 0.250000
vt 0.375000 0.250000
vt 0.125000 0.500000
vt 0.375000 0.500000
vt 0.375000 0.750000
vt 0.125000 0.750000
vt 0.625000 0.000000
vt 0.625000 0.000000
vt 0.625000 0.000000
vt 0.625000 0.000000
vt 0.625000 0.250000
vt 0.625000 0.500000
vt 0.625000 1.000000
vt 0.625000 1.000000
vt 0.625000 0.750000
vt 0.625000 0.750000
vt 0.625000 0.750000
vt 0.625000 1.000000
vt 0.625000 1.000000
vt 0.625000 0.750000
vt 0.625000 0.000000
vt 0.625000 1.000000
vt 0.625000 0.500000
vt 0.625000 0.250000
vt 0.625000 0.250000
vt 0.625000 0.500000
vt 0.625000 0.750000
vt 0.625000 0.250000
vt 0.625000 0.500000
vt 0.625000 1.000000
vt 0.625000 0.250000
vt 0.625000 0.000000
vt 0.625000 0.000000
vt 0.625000 0.250000
vt 0.625000 0.250000
vt 0.625000 0.250000
vt 0.625000 0.250000
vt 0.625000 0.000000
vt 0.625000 0.193517
vt 0.625000 1.000000
vt 0.625000 0.750000
vt 0.625000 0.750000
vt 0.625000 1.000000
vt 0.875000 0.500000
vt 0.625000 0.500000
vt 0.625000 0.500000
vt 0.875000 0.500000
vt 0.625000 0.250025
vt 0.625000 0.253848
vt 0.625000 0.496709
vt 0.625000 0.500000
vt 0.625000 0.500000
vt 0.625000 0.500000
vt 0.625000 0.500000
vt 0.625000 0.500000
vt 0.625000 0.500000
vt 0.625000 0.500000
vt 0.625000 0.250000
vt 0.625000 0.250000
vt 0.625000 0.250000
vt 0.625000 0.250000
vt 0.625000 0.250000
vt 0.625000 0.250000
vt 0.625000 0.500000
vt 0.625000 0.500000
vt 0.625000 0.500000
vt 0.625000 0.500000
vt 0.625000 0.500000
vt 0.625000 0.250000
vt 0.625000 0.250000
vt 0.625000 0.750000
vt 0.625000 0.000000
vt 0.625000 1.000000
vt 0.375000 0.750000
vt 0.375000 1.000000
vt 0.375000 0.000000
vt 0.375000 0.000000
vt 0.375000 0.750000
vt 0.125000 0.750000
vt 0.125000 0.750000
vt 0.875000 0.500000
vt 0.625000 0.500000
vt 0.875000 0.500000
vt 0.625000 0.500000
vt 0.625000 0.253848
vt 0.625000 0.496709
vt 0.000000 0.000000
vt 0.000000 0.000000
vt 0.000000 0.000000
vt 0.000000 0.000000
vt 0.000000 0.000000
vt 0.000000 0.000000
vt 0.000000 0.000000
vt 0.000000 0.000000
vt 0.000000 0.000000
vt 0.000000 0.000000
vt 0.625000 0.250000
vt 0.625000 0.250000
vt 0.625000 0.500000
vt 0.625000 0.500000
vt 0.625000 0.556483
vt 0.875000 0.556483
vt 0.875000 0.750000
vt 0.625000 0.750000
vt 0.625000 1.000000
vt 0.000000 0.000000
vt 0.625000 0.250000
vt 0.625000 0.250000
vt 0.625000 0.500000
vt 0.625000 0.500000
vn 0.0000 1.0000 0.0000
vn 0.0000 0.0000 1.0000
vn -1.0000 0.0000 0.0000
vn 0.0000 -1.0000 0.0000
vn 0.0000 0.0000 -1.0000
vn 1.0000 0.0000 0.0000
vn 0.0000 1.0000 -0.0001
vn 0.0000 1.0000 -0.0002
vn 0.0000 0.0002 1.0000
vn -0.0011 -0.9999 -0.0155
vn 0.0000 0.0040 1.0000
vn 0.0000 0.0006 1.0000
vn -0.0000 0.3134 0.9496
vn 0.0000 0.1587 0.9873
vn -0.0008 0.0035 -1.0000
vn 0.0000 -0.5289 -0.8487
vn 0.0000 0.8043 -0.5942
vn 0.5692 -0.5933 -0.5692
vn 0.7071 0.0000 -0.7071
vn -0.5546 -0.5239 -0.6465
vn -0.6511 0.0000 -0.7590
vn 0.0000 -0.7071 -0.7071
vn 0.0000 -0.7071 0.7071
vn 0.0000 0.7112 0.7030
usemtl Material
s off
f 2/1/1 6/2/1 11/3/1 4/4/1
f 26/5/2 51/6/2 50/7/2 25/8/2
f 7/9/3 11/10/3 6/11/3 1/12/3
f 1/13/4 3/14/4 5/15/4 7/16/4
f 1/12/5 6/11/5 2/1/5 3/14/5
f 3/14/6 2/1/6 4/4/6 5/15/6
f 39/17/3 12/18/3 40/19/3 43/20/3
f 2/1/5 6/11/5 16/21/5 15/22/5
f 12/23/7 40/24/7 8/25/7 10/26/7
f 38/27/8 39/28/8 43/29/8 9/30/8
f 14/31/3 11/10/3 12/18/3 39/17/3
f 40/24/9 8/25/9 9/30/9 43/29/9
f 11/32/1 12/23/1 10/26/1 4/4/1
f 73/33/4 74/34/4 78/35/4 81/36/4
f 4/4/6 13/37/6 38/27/6 10/26/6
f 6/11/3 11/10/3 14/31/3 16/21/3
f 4/4/6 2/1/6 15/22/6 13/37/6
f 15/22/5 16/21/5 75/38/5 72/39/5
f 14/40/4 13/37/4 38/27/4 39/28/4
f 21/41/3 76/42/3 19/43/3
f 80/44/3 79/45/3 22/46/3 25/8/3 68/47/3
f 21/41/3 19/43/3 60/48/3 62/49/3
f 16/21/3 14/31/3 76/42/3 75/38/3
f 76/50/2 17/51/2 18/52/2 19/53/2
f 74/34/3 21/41/3 22/46/3 79/45/3 78/35/3
f 13/37/6 15/22/6 72/39/6 17/51/6
f 21/54/1 20/55/1 23/56/1 22/57/1
f 25/8/10 71/58/10 70/59/10 66/60/10 67/61/10 65/62/10 26/5/10
f 24/63/6 83/64/6 82/65/6 28/66/6 30/67/6
f 25/8/3 22/46/3 47/68/3 50/7/3
f 77/69/3 80/44/3 68/47/3 29/70/3 27/71/3
f 27/71/3 29/70/3 33/72/3 31/73/3
f 23/56/6 84/74/6 83/64/6 24/63/6 26/5/6
f 68/47/5 24/63/5 30/67/5 29/70/5
f 20/55/6 73/33/6 81/36/6 84/74/6 23/56/6
f 57/75/6 32/76/6 35/77/6 37/78/6
f 28/66/11 27/71/11 31/73/11 32/76/11
f 30/67/6 28/66/6 32/76/6 57/75/6
f 35/77/4 34/79/4 36/80/4 37/78/4
f 33/72/5 57/75/5 37/78/5 36/80/5
f 31/73/3 33/72/3 36/80/3 34/79/3
f 13/37/6 17/51/6 41/81/6 38/27/6
f 76/42/3 14/31/3 39/17/3 42/82/3
f 39/28/12 38/27/12 41/81/12 42/83/12
f 17/51/13 76/50/13 42/83/13 41/81/13
f 10/26/6 38/27/6 9/30/6 8/25/6
f 45/84/14 8/25/14 40/24/14 46/85/14
f 44/86/3 46/87/3 40/19/3 12/18/3
f 48/88/4 45/84/4 46/89/4 44/90/4
f 10/26/6 8/25/6 45/84/6 48/88/6
f 4/4/6 10/26/6 48/88/6 5/15/6
f 5/15/4 48/88/4 44/90/4 7/16/4
f 7/9/3 44/86/3 12/18/3 11/10/3
f 47/91/1 49/92/1 51/6/1 50/93/1
f 23/56/6 26/5/6 51/6/6 49/92/6
f 22/57/2 23/56/2 49/92/2 47/91/2
f 26/5/6 24/63/6 64/94/6 65/62/6
f 24/63/4 68/47/4 69/95/4 63/96/4 64/94/4
f 53/97/15 52/98/15 67/99/15 66/100/15 70/101/15 71/102/15
f 52/98/6 51/103/6 26/104/6 65/105/6 67/99/6
f 50/106/1 51/103/1 52/98/1 53/97/1
f 33/72/3 29/70/3 54/107/3 56/108/3
f 54/107/5 55/109/5 58/110/5 56/108/5
f 29/70/1 30/67/1 55/109/1 54/107/1
f 30/67/6 57/75/6 58/110/6 55/109/6
f 56/108/16 58/110/16 57/75/16 33/72/16
f 61/111/1 62/112/1 60/113/1 59/114/1
f 19/53/2 18/52/2 59/114/2 60/115/2
f 62/112/17 61/111/17 20/55/17 21/54/17
f 18/52/6 20/55/6 61/111/6 59/114/6
f 65/105/18 66/100/18 67/99/18
f 65/62/19 64/94/19 63/96/19 66/60/19
f 53/97/3 71/102/3 25/116/3 50/106/3
f 70/101/20 25/116/20 71/102/20
f 68/47/21 25/8/21 70/59/21 69/95/21
f 63/96/5 69/95/5 70/59/5 66/60/5
f 72/39/6 73/33/6 20/55/6 17/51/6
f 74/34/3 75/38/3 76/42/3 21/41/3
f 74/34/22 73/33/22 72/39/22 75/38/22
f 17/51/6 20/55/6 18/52/6
f 77/69/3 78/35/3 79/45/3 80/44/3
f 81/36/6 82/65/6 83/64/6 84/74/6
f 77/69/23 82/65/23 81/36/23 78/35/23
f 82/65/2 77/69/2 27/71/2 28/66/2
f 31/73/3 34/79/3 85/117/3 87/118/3
f 34/79/4 35/77/4 86/119/4 85/117/4
f 35/77/6 32/76/6 88/120/6 86/119/6
f 88/120/2 87/118/2 85/117/2 86/119/2
f 87/118/24 88/120/24 32/76/24 31/73/24
